<svg xmlns="http://www.w3.org/2000/svg" width="1365" height="723" viewBox="0 0 1365 723"><defs><style type="text/css"/></defs><g transform="translate(1633.862788612808 474.95478732231294) scale(1)"><g class="relationship"><g transform="translate(-923.672178180799 -420.87396494679615) rotate(-179.98443670629248)" stroke-width="5" stroke="#000000"><path d="M 59 0 L 213.6829032316273 0"/><polygon points="-24.8621506177483,0 -27.62461179749811,9.20820393249937 0,0 -27.62461179749811,-9.20820393249937" fill="#000000" transform="translate(238.54505384937562 0) rotate(0)" stroke="none"/></g><g transform="translate(-1060.0136247667551 -420.91099947268873) rotate(0.015563293707519342) translate(0 -13)"><g transform="translate(0 0)"><g transform="translate(-45.7421875 0)" fill="#ffffff" stroke="#000000" stroke-width="0"><rect x="0" y="0" width="91.484375" height="26" rx="5" ry="5" stroke="none"/><text xml:space="preserve" x="5" y="17.5" stroke="none" text-anchor="left" font-family="sans-serif" font-size="16" font-weight="normal" fill="#000000">CONTAINS</text></g></g></g></g><g class="relationship"><g transform="translate(-1221.2172210532547 193.12732901762894) rotate(-48.40432385527783)" stroke-width="5" stroke="#000000"><path d="M 59 0 L 354.08446374554234 0"/><polygon points="-24.8621506177483,0 -27.62461179749811,9.20820393249937 0,0 -27.62461179749811,-9.20820393249937" fill="#000000" transform="translate(378.9466143632906 0) rotate(0)" stroke="none"/></g><g transform="translate(-1084.1000754742347 38.66509436058598) rotate(-48.40432385527783) translate(0 -13)"><g transform="translate(0 0)"><g transform="translate(-53.75390625 0)" fill="#ffffff" stroke="#000000" stroke-width="0"><rect x="0" y="0" width="107.5078125" height="26" rx="5" ry="5" stroke="none"/><text xml:space="preserve" x="5" y="17.5" stroke="none" text-anchor="left" font-family="sans-serif" font-size="16" font-weight="normal" fill="#000000">RESULTS_IN</text></g></g></g></g><g class="relationship"><g transform="translate(-930.4776994890609 -134.39025468268557) rotate(0)" stroke-width="5" stroke="#000000"><path d="M 59 0 L 195.89684931608585 0"/><polygon points="-24.8621506177483,0 -27.62461179749811,9.20820393249937 0,0 -27.62461179749811,-9.20820393249937" fill="#000000" transform="translate(220.75899993383416 0) rotate(0)" stroke="none"/></g><g transform="translate(-803.029274831018 -134.39025468268557) rotate(0) translate(0 -13)"><g transform="translate(0 0)"><g transform="translate(-50.33984375 0)" fill="#ffffff" stroke="#000000" stroke-width="0"><rect x="0" y="0" width="100.6796875" height="26" rx="5" ry="5" stroke="none"/><text xml:space="preserve" x="5" y="17.5" stroke="none" text-anchor="left" font-family="sans-serif" font-size="16" font-weight="normal" fill="#000000">PRODUCES</text></g></g></g></g><g class="relationship"><g transform="translate(-1579.862788612808 193.12732901762894) rotate(0)" stroke-width="5" stroke="#000000"><path d="M 59 0 L 274.78341694180494 0"/><polygon points="-24.8621506177483,0 -27.62461179749811,9.20820393249937 0,0 -27.62461179749811,-9.20820393249937" fill="#000000" transform="translate(299.6455675595532 0) rotate(0)" stroke="none"/></g><g transform="translate(-1412.9710801419055 193.12732901762894) rotate(0) translate(0 -13)"><g transform="translate(0 0)"><g transform="translate(-89.9140625 0)" fill="#ffffff" stroke="#000000" stroke-width="0"><rect x="0" y="0" width="179.828125" height="26" rx="5" ry="5" stroke="none"/><text xml:space="preserve" x="5" y="17.5" stroke="none" text-anchor="left" font-family="sans-serif" font-size="16" font-weight="normal" fill="#000000">INCREASES_RISK_OF</text></g></g></g></g><g class="relationship"><g transform="translate(-930.4776994890609 193.12732901762894) rotate(180)" stroke-width="5" stroke="#000000"><path d="M 59 0 L 206.87737094644544 0"/><polygon points="-24.8621506177483,0 -27.62461179749811,9.20820393249937 0,0 -27.62461179749811,-9.20820393249937" fill="#000000" transform="translate(231.73952156419375 0) rotate(0)" stroke="none"/></g><g transform="translate(-1063.4163849622837 193.12732901762897) rotate(360) translate(0 -13)"><g transform="translate(0 0)"><g transform="translate(-48.86328125 0)" fill="#ffffff" stroke="#000000" stroke-width="0"><rect x="0" y="0" width="97.7265625" height="26" rx="5" ry="5" stroke="none"/><text xml:space="preserve" x="5" y="17.5" stroke="none" text-anchor="left" font-family="sans-serif" font-size="16" font-weight="normal" fill="#000000">SUPPORTS</text></g></g></g></g><g class="relationship"><g transform="translate(-930.4776994890609 193.12732901762894) rotate(-90)" stroke-width="5" stroke="#000000"><path d="M 59 0 L 243.6554330825662 0"/><polygon points="-24.8621506177483,0 -27.62461179749811,9.20820393249937 0,0 -27.62461179749811,-9.20820393249937" fill="#000000" transform="translate(268.5175837003145 0) rotate(0)" stroke="none"/></g><g transform="translate(-930.4776994890609 41.79961247634583) rotate(90) translate(0 -13)"><g transform="translate(0 0)"><g transform="translate(-48.86328125 0)" fill="#ffffff" stroke="#000000" stroke-width="0"><rect x="0" y="0" width="97.7265625" height="26" rx="5" ry="5" stroke="none"/><text xml:space="preserve" x="5" y="17.5" stroke="none" text-anchor="left" font-family="sans-serif" font-size="16" font-weight="normal" fill="#000000">SUPPORTS</text></g></g></g></g><g class="relationship"><g transform="translate(-1221.2172210532547 -420.95478732231294) rotate(90)" stroke-width="5" stroke="#000000"><path d="M 59 0 L 530.2199657221936 0"/><polygon points="-24.8621506177483,0 -27.62461179749811,9.20820393249937 0,0 -27.62461179749811,-9.20820393249937" fill="#000000" transform="translate(555.0821163399419 0) rotate(0)" stroke="none"/></g><g transform="translate(-1221.2172210532547 -126.34480446121614) rotate(270) translate(0 -13)"><g transform="translate(0 0)"><g transform="translate(-61.90625 0)" fill="#ffffff" stroke="#000000" stroke-width="0"><rect x="0" y="0" width="123.8125" height="26" rx="5" ry="5" stroke="none"/><text xml:space="preserve" x="5" y="17.5" stroke="none" text-anchor="left" font-family="sans-serif" font-size="16" font-weight="normal" fill="#000000">EXPERIENCES</text></g></g></g></g><g class="relationship"><g transform="translate(-1579.862788612808 -134.39025468268557) rotate(42.402541775138346)" stroke-width="5" stroke="#000000"><path d="M 59 0 L 401.8274732811019 0"/><polygon points="-24.8621506177483,0 -27.62461179749811,9.20820393249937 0,0 -27.62461179749811,-9.20820393249937" fill="#000000" transform="translate(426.6896238988502 0) rotate(0)" stroke="none"/></g><g transform="translate(-1409.7194269169077 20.985826177526747) rotate(42.402541775138346) translate(0 -13)"><g transform="translate(0 0)"><g transform="translate(-63.08984375 0)" fill="#ffffff" stroke="#000000" stroke-width="0"><rect x="0" y="0" width="126.1796875" height="26" rx="5" ry="5" stroke="none"/><text xml:space="preserve" x="5" y="17.5" stroke="none" text-anchor="left" font-family="sans-serif" font-size="16" font-weight="normal" fill="#000000">ACCELERATES</text></g></g></g></g><g class="relationship"><g transform="translate(-650.7186995552267 -134.39025468268557) rotate(0)" stroke-width="5" stroke="#000000"><path d="M 59 0 L 243.6554330825662 0"/><polygon points="-24.8621506177483,0 -27.62461179749811,9.20820393249937 0,0 -27.62461179749811,-9.20820393249937" fill="#000000" transform="translate(268.5175837003145 0) rotate(0)" stroke="none"/></g><g transform="translate(-499.39098301394364 -134.39025468268557) rotate(0) translate(0 -13)"><g transform="translate(0 0)"><g transform="translate(-57.015625 0)" fill="#ffffff" stroke="#000000" stroke-width="0"><rect x="0" y="0" width="114.03125" height="26" rx="5" ry="5" stroke="none"/><text xml:space="preserve" x="5" y="17.5" stroke="none" text-anchor="left" font-family="sans-serif" font-size="16" font-weight="normal" fill="#000000">VERIFIED_BY</text></g></g></g></g><g class="relationship"><g transform="translate(-323.20111585491225 -134.39025468268557) rotate(90)" stroke-width="5" stroke="#000000"><path d="M 59 0 L 243.6554330825662 0"/><polygon points="-24.8621506177483,0 -27.62461179749811,9.20820393249937 0,0 -27.62461179749811,-9.20820393249937" fill="#000000" transform="translate(268.5175837003145 0) rotate(0)" stroke="none"/></g><g transform="translate(-323.20111585491225 16.937461858597544) rotate(270) translate(0 -13)"><g transform="translate(0 0)"><g transform="translate(-63.66796875 0)" fill="#ffffff" stroke="#000000" stroke-width="0"><rect x="0" y="0" width="127.3359375" height="26" rx="5" ry="5" stroke="none"/><text xml:space="preserve" x="5" y="17.5" stroke="none" text-anchor="left" font-family="sans-serif" font-size="16" font-weight="normal" fill="#000000">RECOMMENDS</text></g></g></g></g><g class="relationship"><g transform="translate(-930.4776994890609 193.12732901762894) rotate(-28.338958703417603)" stroke-width="5" stroke="#000000"><path d="M 59 0 L 606.1035127766381 0"/><polygon points="-24.8621506177483,0 -27.62461179749811,9.20820393249937 0,0 -27.62461179749811,-9.20820393249937" fill="#000000" transform="translate(630.9656633943864 0) rotate(0)" stroke="none"/></g><g transform="translate(-637.7806781510608 35.26940436125244) rotate(-28.338958703417603) translate(0 -13)"><g transform="translate(0 0)"><g transform="translate(-48.86328125 0)" fill="#ffffff" stroke="#000000" stroke-width="0"><rect x="0" y="0" width="97.7265625" height="26" rx="5" ry="5" stroke="none"/><text xml:space="preserve" x="5" y="17.5" stroke="none" text-anchor="left" font-family="sans-serif" font-size="16" font-weight="normal" fill="#000000">SUPPORTS</text></g></g></g></g><g class="relationship"><g transform="translate(-930.4776994890609 -134.39025468268557) rotate(-88.63917454416845)" stroke-width="5" stroke="#000000"><path d="M 59 0 L 202.70238202187906 0"/><polygon points="-24.8621506177483,0 -27.62461179749811,9.20820393249937 0,0 -27.62461179749811,-9.20820393249937" fill="#000000" transform="translate(227.56453263962737 0) rotate(0)" stroke="none"/></g><g transform="translate(-927.3701601141297 -265.2045405539719) rotate(-88.63917454416845) translate(0 -13)"><g transform="translate(0 0)"><g transform="translate(-41.4453125 0)" fill="#ffffff" stroke="#000000" stroke-width="0"><rect x="0" y="0" width="82.890625" height="26" rx="5" ry="5" stroke="none"/><text xml:space="preserve" x="5" y="17.5" stroke="none" text-anchor="left" font-family="sans-serif" font-size="16" font-weight="normal" fill="#000000">AFFECTS</text></g></g></g></g><g class="relationship"><g transform="translate(-1221.2172210532547 -420.95478732231294) rotate(179.98708814119618)" stroke-width="5" stroke="#000000"><path d="M 59 0 L 274.7834260486459 0"/><polygon points="-24.8621506177483,0 -27.62461179749811,9.20820393249937 0,0 -27.62461179749811,-9.20820393249937" fill="#000000" transform="translate(299.6455766663942 0) rotate(0)" stroke="none"/></g><g transform="translate(-1388.1089298398108 -420.9171775326535) rotate(359.98708814119624) translate(0 -13)"><g transform="translate(0 0)"><g transform="translate(-65.3125 0)" fill="#ffffff" stroke="#000000" stroke-width="0"><rect x="0" y="0" width="130.625" height="26" rx="5" ry="5" stroke="none"/><text xml:space="preserve" x="5" y="17.5" stroke="none" text-anchor="left" font-family="sans-serif" font-size="16" font-weight="normal" fill="#000000">HAS_MATERIAL</text></g></g></g></g><g class="node"><g fill="#ffffff" stroke="#000000" stroke-width="4"><circle cx="-1579.862788612808" cy="-420.87396494679615" r="52"/></g><g transform="translate(-1579.862788612808 -420.87396494679615)"><g transform="scale(0.4765630234375) translate(0 0)"><g transform="translate(0 0)"><g font-family="sans-serif" font-size="50" font-weight="normal" fill="#000000" text-anchor="middle"><text xml:space="preserve" x="0" y="13" stroke="none">Material</text></g></g></g></g></g><g class="node"><g fill="#ffffff" stroke="#000000" stroke-width="4"><circle cx="-923.672178180799" cy="-420.87396494679615" r="52"/></g><g transform="translate(-923.672178180799 -420.87396494679615)"><g transform="scale(0.337891287109375) translate(0 0)"><g transform="translate(0 0)"><g font-family="sans-serif" font-size="50" font-weight="normal" fill="#000000" text-anchor="middle"><text xml:space="preserve" x="0" y="13" stroke="none">Component</text></g></g></g></g></g><g class="node"><g fill="#ffffff" stroke="#000000" stroke-width="4"><circle cx="-1221.2172210532547" cy="-420.95478732231294" r="52"/></g><g transform="translate(-1221.2172210532547 -420.95478732231294)"><g transform="scale(0.2421882578125) translate(0 0)"><g transform="translate(0 0)"><g font-family="sans-serif" font-size="50" font-weight="normal" fill="#000000" text-anchor="middle"><text xml:space="preserve" x="0" y="13" stroke="none">Sub-Component</text></g></g></g></g></g><g class="node"><g fill="#ffffff" stroke="#000000" stroke-width="4"><circle cx="-1221.2172210532547" cy="193.12732901762894" r="52"/></g><g transform="translate(-1221.2172210532547 193.12732901762894)"><g transform="scale(0.341797533203125) translate(0 0)"><g transform="translate(0 0)"><g font-family="sans-serif" font-size="50" font-weight="normal" fill="#000000" text-anchor="middle"><text xml:space="preserve" x="0" y="-47" stroke="none">Failure</text><text xml:space="preserve" x="0" y="13" stroke="none" text-anchor="middle">Mechanism</text></g></g></g></g></g><g class="node"><g fill="#ffffff" stroke="#000000" stroke-width="4"><circle cx="-930.4776994890609" cy="-134.39025468268557" r="52"/></g><g transform="translate(-930.4776994890609 -134.39025468268557)"><g transform="scale(0.46093803906249997) translate(0 0)"><g transform="translate(0 0)"><g font-family="sans-serif" font-size="50" font-weight="normal" fill="#000000" text-anchor="middle"><text xml:space="preserve" x="0" y="-17" stroke="none">Failure</text><text xml:space="preserve" x="0" y="43" stroke="none" text-anchor="middle">Mode</text></g></g></g></g></g><g class="node"><g fill="#ffffff" stroke="#000000" stroke-width="4"><circle cx="-650.7186995552267" cy="-134.39025468268557" r="52"/></g><g transform="translate(-650.7186995552267 -134.39025468268557)"><g transform="scale(0.40625059374999994) translate(0 0)"><g transform="translate(0 0)"><g font-family="sans-serif" font-size="50" font-weight="normal" fill="#000000" text-anchor="middle"><text xml:space="preserve" x="0" y="13" stroke="none">Symptom</text></g></g></g></g></g><g class="node"><g fill="#ffffff" stroke="#000000" stroke-width="4"><circle cx="-323.20111585491225" cy="-134.39025468268557" r="52"/></g><g transform="translate(-323.20111585491225 -134.39025468268557)"><g transform="scale(0.44531305468749993) translate(0 0)"><g transform="translate(0 0)"><g font-family="sans-serif" font-size="50" font-weight="normal" fill="#000000" text-anchor="middle"><text xml:space="preserve" x="0" y="-47" stroke="none">Test</text><text xml:space="preserve" x="0" y="13" stroke="none" text-anchor="middle">Method</text></g></g></g></g></g><g class="node"><g fill="#ffffff" stroke="#000000" stroke-width="4"><circle cx="-323.20111585491225" cy="193.12732901762894" r="52"/></g><g transform="translate(-323.20111585491225 193.12732901762894)"><g transform="scale(0.306641318359375) translate(0 0)"><g transform="translate(0 0)"><g font-family="sans-serif" font-size="50" font-weight="normal" fill="#000000" text-anchor="middle"><text xml:space="preserve" x="0" y="13" stroke="none">Maintenance</text><text xml:space="preserve" x="0" y="73" stroke="none" text-anchor="middle">Action</text></g></g></g></g></g><g class="node"><g fill="#ffffff" stroke="#000000" stroke-width="4"><circle cx="-1579.862788612808" cy="193.12732901762894" r="52"/></g><g transform="translate(-1579.862788612808 193.12732901762894)"><g transform="scale(0.359375640625) translate(0 0)"><g transform="translate(0 0)"><g font-family="sans-serif" font-size="50" font-weight="normal" fill="#000000" text-anchor="middle"><text xml:space="preserve" x="0" y="-17" stroke="none">Operating</text><text xml:space="preserve" x="0" y="43" stroke="none" text-anchor="middle">Condition</text></g></g></g></g></g><g class="node"><g fill="#ffffff" stroke="#000000" stroke-width="4"><circle cx="-930.4776994890609" cy="193.12732901762894" r="52"/></g><g transform="translate(-930.4776994890609 193.12732901762894)"><g transform="scale(0.34765690234375) translate(0 0)"><g transform="translate(0 0)"><g font-family="sans-serif" font-size="50" font-weight="normal" fill="#000000" text-anchor="middle"><text xml:space="preserve" x="0" y="-17" stroke="none">Document</text><text xml:space="preserve" x="0" y="43" stroke="none" text-anchor="middle">Evidence</text></g></g></g></g></g><g class="node"><g fill="#ffffff" stroke="#000000" stroke-width="4"><circle cx="-1579.862788612808" cy="-134.39025468268557" r="52"/></g><g transform="translate(-1579.862788612808 -134.39025468268557)"><g transform="scale(0.484375515625) translate(0 0)"><g transform="translate(0 0)"><g font-family="sans-serif" font-size="50" font-weight="normal" fill="#000000" text-anchor="middle"><text xml:space="preserve" x="0" y="-17" stroke="none">Stress</text><text xml:space="preserve" x="0" y="43" stroke="none" text-anchor="middle">Factor</text></g></g></g></g></g></g></svg>